<svg xmlns="http://www.w3.org/2000/svg" version="1.1" xmlns:xlink="http://www.w3.org/1999/xlink" xmlns:svgjs="http://svgjs.dev/svgjs" width="1440" height="560" preserveAspectRatio="none" viewBox="0 0 1440 560"><g mask="url(&quot;#SvgjsMask1000&quot;)" fill="none"><rect width="1440" height="560" x="0" y="0" fill="#1e3266"></rect><path d="M1488 560L0 560 L0 342.43Q28.5 298.94, 72 327.44Q120.57 304.01, 144 352.58Q158.15 294.73, 216 308.87Q268.69 241.56, 336 294.24Q386.99 273.23, 408 324.21Q459.87 256.07, 528 307.94Q622.98 282.92, 648 377.9Q689.48 299.38, 768 340.85Q805.65 258.5, 888 296.16Q979.26 267.42, 1008 358.68Q1025.63 304.31, 1080 321.93Q1108.15 278.08, 1152 306.23Q1179.52 261.75, 1224 289.26Q1281.63 274.88, 1296 332.51Q1324.24 288.75, 1368 317Q1415.06 244.06, 1488 291.12z" fill="#182f5d"></path><path d="M1488 560L0 560 L0 364.18Q56.9 301.08, 120 357.97Q188.18 306.15, 240 374.33Q317.32 331.65, 360 408.97Q431.36 360.33, 480 431.69Q483.42 363.11, 552 366.53Q605 299.53, 672 352.53Q731.57 340.1, 744 399.67Q821.13 356.8, 864 433.92Q918.07 367.99, 984 422.06Q1001.85 367.91, 1056 385.77Q1104.38 314.15, 1176 362.53Q1276.2 342.73, 1296 442.93Q1321.7 396.63, 1368 422.33Q1409.52 343.85, 1488 385.36z" fill="#25467d"></path><path d="M1488 560L0 560 L0 461.81Q63.37 453.18, 72 516.55Q72.57 445.12, 144 445.69Q172.43 402.12, 216 430.54Q292.21 386.75, 336 462.96Q387.93 442.88, 408 494.81Q441.74 408.55, 528 442.29Q579.39 373.69, 648 425.08Q699.47 404.55, 720 456.03Q782.43 446.46, 792 508.9Q818.47 463.37, 864 489.84Q893.73 399.56, 984 429.29Q1053.07 378.36, 1104 447.43Q1178.56 401.99, 1224 476.55Q1277.48 458.03, 1296 511.52Q1326.48 422, 1416 452.47Q1438.57 403.04, 1488 425.61z" fill="#356cb1"></path><path d="M1488 560L0 560 L0 494.66Q75.91 498.57, 72 574.48Q113.66 544.14, 144 585.8Q178.57 500.37, 264 534.94Q332.25 483.19, 384 551.44Q414.12 461.56, 504 491.68Q578.11 445.79, 624 519.9Q710.22 486.12, 744 572.33Q795.64 503.98, 864 555.62Q918.01 489.63, 984 543.64Q1058.34 497.98, 1104 572.32Q1139.62 487.93, 1224 523.55Q1276.17 503.72, 1296 555.89Q1349.62 489.51, 1416 543.13Q1444.85 499.98, 1488 528.83z" fill="white"></path></g><defs><mask id="SvgjsMask1000"><rect width="1440" height="560" fill="#ffffff"></rect></mask></defs></svg>